<?xml version="1.0" encoding="iso-8859-1"?>
<!-- Uploaded to: SVG Repo, www.svgrepo.com, Generator: SVG Repo Mixer Tools -->
<svg height="800px" width="800px" version="1.1" id="Layer_1" xmlns="http://www.w3.org/2000/svg" xmlns:xlink="http://www.w3.org/1999/xlink" 
	 viewBox="0 0 392.339 392.339" xml:space="preserve">
<path style="fill:#FFC10D;" d="M254.642,348.897h-72.792c-6.206,0-12.024,2.651-16.162,7.176l-13.317,14.675h131.62l-13.317-14.675
	C266.602,351.483,260.719,348.897,254.642,348.897z"/>
<path style="fill:#FFFFFF;" d="M218.246,21.786c-60.121,0-109.059,48.937-109.059,109.059s48.937,109.059,109.059,109.059
	s109.059-48.937,109.059-109.059S278.368,21.786,218.246,21.786z"/>
<path style="fill:#56ACE0;" d="M218.246,218.053c-48.032,0-87.273-39.111-87.273-87.273s39.111-87.273,87.273-87.273
	s87.273,39.111,87.273,87.273S266.279,218.053,218.246,218.053z"/>
<g>
	<path style="fill:#194F82;" d="M341.333,254.19c4.267-4.267,4.267-11.119,0-15.451c-4.267-4.267-11.119-4.267-15.451,0
		c-59.475,59.475-156.38,59.475-215.919,0s-59.475-156.38,0-215.919c4.267-4.267,4.267-11.119,0-15.451
		c-4.267-4.267-11.119-4.267-15.451,0c-68.008,68.008-68.008,178.747,0,246.756c31.224,31.224,71.499,48.032,112.42,50.618v22.238
		h-25.471c-12.283,0-24.113,5.236-32.323,14.287l-29.802,32.84c-5.947,7.176-2.457,17.002,8.145,18.23h180.816
		c11.766,0,13.511-11.83,8.145-18.23l-29.802-32.84c-8.275-9.115-20.04-14.287-32.323-14.287h-25.471v-22.238
		C269.834,302.287,310.109,285.414,341.333,254.19z M254.384,348.962c6.206,0,12.024,2.651,16.162,7.176l13.317,14.675H152.178
		l13.317-14.675c4.073-4.59,10.02-7.176,16.162-7.176H254.384z"/>
	<path style="fill:#194F82;" d="M217.988,261.689c72.145,0,130.844-58.699,130.844-130.844S290.069,0,217.988,0
		S87.079,58.699,87.079,130.844S145.842,261.689,217.988,261.689z M267.442,227.879c4.396-7.176,8.339-15.386,11.572-24.372
		c5.495,1.422,10.602,3.103,15.386,4.848C286.513,216.178,277.398,222.772,267.442,227.879z M308.945,190.772
		c-7.176-3.103-15.063-5.883-23.661-8.145c2.909-12.671,4.848-26.44,5.495-40.857h35.62
		C324.655,159.741,318.449,176.42,308.945,190.772z M326.465,119.919h-35.62c-0.646-14.481-2.521-28.186-5.495-40.857
		c8.598-2.263,16.485-4.913,23.725-8.145C318.449,85.333,324.655,102.012,326.465,119.919z M294.4,53.204
		c-4.784,1.745-9.956,3.426-15.451,4.848c-3.297-8.986-7.176-17.131-11.636-24.372C277.333,38.853,286.513,45.446,294.4,53.204z
		 M228.913,24.824c10.602,5.56,20.881,18.747,28.444,37.689c-9.115,1.422-18.618,2.327-28.444,2.715V24.824z M228.913,87.014
		c12.154-0.453,23.855-1.616,34.974-3.426c2.651,11.055,4.461,23.208,5.107,36.396h-40.081V87.014z M228.913,141.705h40.081
		c-0.646,13.188-2.457,25.341-5.107,36.396c-11.119-1.875-22.885-3.038-34.974-3.426V141.705z M228.913,196.525
		c9.762,0.388,19.329,1.228,28.444,2.65c-7.564,18.941-17.778,32.129-28.444,37.689V196.525z M109.511,141.705h35.62
		c0.646,14.545,2.521,28.251,5.56,41.051c-8.598,2.263-16.485,4.913-23.661,8.145C117.527,176.485,111.257,159.806,109.511,141.705z
		 M141.511,208.485c4.784-1.745,9.891-3.426,15.386-4.848c3.297,8.986,7.176,17.067,11.572,24.242
		C158.513,222.772,149.463,216.307,141.511,208.485z M207.127,236.929c-10.602-5.56-20.881-18.747-28.444-37.689
		c9.115-1.422,18.618-2.327,28.444-2.715V236.929z M207.127,174.739c-12.154,0.453-23.855,1.616-34.974,3.491
		c-2.651-11.055-4.461-23.273-5.107-36.461h40.081V174.739z M207.127,24.824v40.404c-9.826-0.388-19.329-1.293-28.444-2.715
		C186.246,43.572,196.461,30.384,207.127,24.824z M207.127,87.014v32.97h-40.081c0.646-13.123,2.457-25.341,5.107-36.396
		C183.208,85.398,194.974,86.562,207.127,87.014z M168.533,33.745c-4.396,7.176-8.339,15.386-11.636,24.372
		c-5.495-1.422-10.602-3.103-15.451-4.848C149.463,45.446,158.578,38.853,168.533,33.745z M126.966,70.982
		c7.176,3.103,15.127,5.883,23.661,8.145c-2.909,12.671-4.848,26.376-5.495,40.857h-35.62
		C111.257,102.012,117.463,85.333,126.966,70.982z"/>
</g>
</svg>